<svg xmlns="http://www.w3.org/2000/svg" width="43" height="52" fill="none" viewBox="0 0 43 52"><rect width="42.667" height="44.778" y="2.889" fill="url(#paint0_linear_104_32)" rx="5.885"/><path fill="#fff" d="M32.1712 39H25.3112L16.1762 25.21V39H9.3162V14.325H16.1762L25.3112 28.29V14.325H32.1712V39Z"/><path fill="#fff" d="M38.2529 15.4446C29.9095 17.49 26.5705 23.3991 26.5705 25.6718C26.2808 29.0808 26.7443 37.9444 27.4396 32.4899C28.1349 27.0354 35.0662 17.4332 38.2529 15.4446Z"/><path fill="#fff" d="M2.94263 39C10.2432 37.1119 13.1647 31.6574 13.1647 29.5595C13.4182 26.4127 13.0126 18.2309 12.4043 23.2659C11.7959 28.3008 5.73103 37.1644 2.94263 39Z"/><defs><linearGradient id="paint0_linear_104_32" x1="-6.621" x2="45.37" y1="-1.444" y2="51.512" gradientUnits="userSpaceOnUse"><stop stop-color="#468EF9"/><stop offset="1" stop-color="#0C66EE"/></linearGradient></defs></svg>