<svg xmlns="http://www.w3.org/2000/svg" xmlns:xlink="http://www.w3.org/1999/xlink" width="500" zoomAndPan="magnify" viewBox="0 0 375 374.999991" height="500" preserveAspectRatio="xMidYMid meet" version="1.0"><defs><g/><clipPath id="46d26c432a"><path d="M 101.832031 58.496094 L 281.082031 58.496094 L 281.082031 237.746094 L 101.832031 237.746094 Z M 101.832031 58.496094 " clip-rule="nonzero"/></clipPath></defs><rect x="-37.5" width="450" fill="#ffffff" y="-37.499999" height="449.999989" fill-opacity="1"/><rect x="-37.5" width="450" fill="#ffffff" y="-37.499999" height="449.999989" fill-opacity="1"/><rect x="-37.5" width="450" fill="#ffffff" y="-37.499999" height="449.999989" fill-opacity="1"/><path fill="#07090d" d="M 219.964844 176.625 L 162.9375 176.625 L 162.9375 119.597656 L 219.964844 119.597656 Z M 179.230469 160.332031 L 203.671875 160.332031 L 203.671875 135.890625 L 179.230469 135.890625 Z M 179.230469 160.332031 " fill-opacity="1" fill-rule="nonzero"/><g clip-path="url(#46d26c432a)"><path fill="#07090d" d="M 272.921875 58.496094 L 109.980469 58.496094 C 105.480469 58.496094 101.832031 62.144531 101.832031 66.640625 L 101.832031 229.582031 C 101.832031 234.082031 105.480469 237.730469 109.980469 237.730469 L 272.921875 237.730469 C 277.421875 237.730469 281.066406 234.082031 281.066406 229.582031 L 281.066406 66.640625 C 281.066406 62.144531 277.421875 58.496094 272.921875 58.496094 Z M 219.964844 221.433594 L 219.964844 188.847656 L 203.671875 188.847656 L 203.671875 221.433594 L 179.230469 221.433594 L 179.230469 188.847656 L 162.9375 188.847656 L 162.9375 221.433594 L 118.128906 221.433594 L 118.128906 176.625 L 150.714844 176.625 L 150.714844 160.332031 L 118.128906 160.332031 L 118.128906 135.890625 L 150.714844 135.890625 L 150.714844 119.597656 L 118.128906 119.597656 L 118.128906 74.789062 L 162.9375 74.789062 L 162.9375 107.375 L 179.230469 107.375 L 179.230469 74.789062 L 203.671875 74.789062 L 203.671875 107.375 L 219.964844 107.375 L 219.964844 74.789062 L 264.773438 74.789062 L 264.773438 119.597656 L 232.1875 119.597656 L 232.1875 135.890625 L 264.773438 135.890625 L 264.773438 160.332031 L 232.1875 160.332031 L 232.1875 176.625 L 264.773438 176.625 L 264.773438 221.433594 Z M 219.964844 221.433594 " fill-opacity="1" fill-rule="nonzero"/></g><g fill="#07090d" fill-opacity="1"><g transform="translate(100.137368, 296.232286)"><g><path d="M 43.707031 0 L 37.351562 -32.730469 L 28.785156 -32.730469 L 22 -9.773438 L 15.164062 -32.730469 L 6.59375 -32.730469 L 0.242188 0 L 8.183594 0 L 12.035156 -22.574219 L 18.4375 0 L 25.511719 0 L 31.914062 -22.574219 L 35.765625 0 Z M 43.707031 0 "/></g></g></g><g fill="#07090d" fill-opacity="1"><g transform="translate(143.120509, 296.232286)"><g><path d="M 22 -32.730469 L 22 -13.816406 C 22 -9.289062 20.648438 -6.738281 15.691406 -6.738281 C 10.78125 -6.738281 9.386719 -9.289062 9.386719 -13.816406 L 9.386719 -32.730469 L 2.167969 -32.730469 L 2.167969 -12.757812 C 2.167969 -4.042969 7.171875 0.480469 15.691406 0.480469 C 24.210938 0.480469 29.21875 -4.042969 29.21875 -12.757812 L 29.21875 -32.730469 Z M 22 -32.730469 "/></g></g></g><g fill="#07090d" fill-opacity="1"><g transform="translate(173.540785, 296.232286)"><g><path d="M 15.597656 -5.101562 C 12.035156 -5.101562 8.953125 -6.882812 8.761719 -10.78125 L 1.445312 -10.78125 C 1.492188 -2.792969 8.085938 0.769531 15.308594 0.769531 C 22 0.769531 28.882812 -2.070312 28.882812 -9.773438 C 28.882812 -22.238281 9.964844 -18.050781 9.964844 -23.875 C 9.964844 -26.332031 12.804688 -27.292969 14.824219 -27.292969 C 18.4375 -27.292969 20.410156 -26.1875 20.792969 -22.769531 L 27.773438 -22.769531 C 27.535156 -30.230469 21.46875 -33.214844 14.730469 -33.214844 C 8.761719 -33.214844 2.503906 -30.035156 2.503906 -23.296875 C 2.503906 -11.214844 21.421875 -15.308594 21.421875 -8.953125 C 21.421875 -6.015625 17.859375 -5.101562 15.597656 -5.101562 Z M 15.597656 -5.101562 "/></g></g></g><g fill="#07090d" fill-opacity="1"><g transform="translate(202.902134, 296.232286)"><g><path d="M 21.855469 -6.546875 L 10.109375 -6.546875 L 10.109375 -13.140625 L 21.371094 -13.140625 L 21.371094 -19.6875 L 10.109375 -19.6875 L 10.109375 -26.1875 L 21.855469 -26.1875 L 21.855469 -32.730469 L 2.886719 -32.730469 L 2.886719 0 L 21.855469 0 Z M 21.855469 -6.546875 "/></g></g></g><g fill="#07090d" fill-opacity="1"><g transform="translate(226.679988, 296.232286)"><g><path d="M 12.46875 0 L 19.6875 0 L 19.6875 -15.644531 L 31.769531 -32.730469 L 23.152344 -32.730469 L 16.078125 -21.421875 L 9 -32.730469 L 0.386719 -32.730469 L 12.46875 -15.644531 Z M 12.46875 0 "/></g></g></g><g fill="#07090d" fill-opacity="1"><g transform="translate(257.87041, 296.232286)"><g><path d="M 21.855469 -6.546875 L 10.109375 -6.546875 L 10.109375 -13.140625 L 21.371094 -13.140625 L 21.371094 -19.6875 L 10.109375 -19.6875 L 10.109375 -26.1875 L 21.855469 -26.1875 L 21.855469 -32.730469 L 2.886719 -32.730469 L 2.886719 0 L 21.855469 0 Z M 21.855469 -6.546875 "/></g></g></g><g fill="#07090d" fill-opacity="1"><g transform="translate(114.712197, 319.417805)"><g><path d="M 5.140625 -2.3125 L 2.5625 -2.3125 L 1.796875 0 L 0.171875 0 L 2.921875 -7.65625 L 4.84375 -7.65625 L 7.5625 0 L 5.890625 0 Z M 3.859375 -6.34375 L 2.953125 -3.515625 L 4.75 -3.515625 Z M 3.859375 -6.34375 "/></g></g></g><g fill="#07090d" fill-opacity="1"><g transform="translate(123.541268, 319.417805)"><g><path d="M 2.515625 0 L 0.984375 0 L 0.984375 -7.65625 L 2.515625 -7.65625 Z M 2.515625 0 "/></g></g></g><g fill="#07090d" fill-opacity="1"><g transform="translate(128.111343, 319.417805)"><g/></g></g><g fill="#07090d" fill-opacity="1"><g transform="translate(131.594485, 319.417805)"><g><path d="M 4.75 -7.59375 C 5.363281 -7.53125 5.859375 -7.296875 6.234375 -6.890625 C 6.617188 -6.492188 6.8125 -5.953125 6.8125 -5.265625 C 6.8125 -4.597656 6.613281 -4.0625 6.21875 -3.65625 C 5.832031 -3.25 5.34375 -3.007812 4.75 -2.9375 C 4.425781 -2.90625 4.054688 -2.890625 3.640625 -2.890625 L 2.515625 -2.890625 L 2.515625 0 L 0.984375 0 L 0.984375 -7.65625 L 3.640625 -7.65625 C 4.066406 -7.65625 4.4375 -7.632812 4.75 -7.59375 Z M 4.296875 -4.125 C 4.898438 -4.21875 5.203125 -4.597656 5.203125 -5.265625 C 5.203125 -5.941406 4.898438 -6.320312 4.296875 -6.40625 C 4.117188 -6.4375 3.890625 -6.453125 3.609375 -6.453125 L 2.515625 -6.453125 L 2.515625 -4.09375 L 3.609375 -4.09375 C 3.890625 -4.09375 4.117188 -4.101562 4.296875 -4.125 Z M 4.296875 -4.125 "/></g></g></g><g fill="#07090d" fill-opacity="1"><g transform="translate(139.835724, 319.417805)"><g><path d="M 4.34375 -7.8125 C 5.519531 -7.8125 6.441406 -7.445312 7.109375 -6.71875 C 7.785156 -6 8.125 -5.035156 8.125 -3.828125 C 8.125 -2.617188 7.785156 -1.648438 7.109375 -0.921875 C 6.441406 -0.203125 5.519531 0.15625 4.34375 0.15625 C 3.175781 0.15625 2.253906 -0.203125 1.578125 -0.921875 C 0.898438 -1.648438 0.5625 -2.617188 0.5625 -3.828125 C 0.5625 -5.035156 0.894531 -6 1.5625 -6.71875 C 2.238281 -7.445312 3.164062 -7.8125 4.34375 -7.8125 Z M 2.734375 -1.734375 C 3.128906 -1.234375 3.664062 -0.984375 4.34375 -0.984375 C 5.03125 -0.984375 5.5625 -1.234375 5.9375 -1.734375 C 6.320312 -2.242188 6.515625 -2.941406 6.515625 -3.828125 C 6.515625 -4.722656 6.320312 -5.421875 5.9375 -5.921875 C 5.5625 -6.421875 5.03125 -6.671875 4.34375 -6.671875 C 3.65625 -6.671875 3.117188 -6.421875 2.734375 -5.921875 C 2.347656 -5.421875 2.15625 -4.722656 2.15625 -3.828125 C 2.15625 -2.929688 2.347656 -2.234375 2.734375 -1.734375 Z M 2.734375 -1.734375 "/></g></g></g><g fill="#07090d" fill-opacity="1"><g transform="translate(149.651908, 319.417805)"><g><path d="M 11 -7.65625 L 8.96875 0 L 6.9375 0 L 5.625 -6.375 L 4.25 0 L 2.203125 0 L 0.28125 -7.65625 L 1.9375 -7.65625 L 3.234375 -1.171875 L 4.578125 -7.546875 L 6.734375 -7.546875 L 8.046875 -1.15625 L 9.421875 -7.65625 Z M 11 -7.65625 "/></g></g></g><g fill="#07090d" fill-opacity="1"><g transform="translate(161.930323, 319.417805)"><g><path d="M 6.515625 -1.203125 L 6.515625 0 L 0.984375 0 L 0.984375 -7.65625 L 6.40625 -7.65625 L 6.40625 -6.453125 L 2.515625 -6.453125 L 2.515625 -4.4375 L 6.125 -4.4375 L 6.125 -3.234375 L 2.515625 -3.234375 L 2.515625 -1.203125 Z M 6.515625 -1.203125 "/></g></g></g><g fill="#07090d" fill-opacity="1"><g transform="translate(170.093926, 319.417805)"><g><path d="M 6.53125 -1.9375 C 6.625 -1.019531 6.8125 -0.375 7.09375 0 L 5.40625 0 C 5.226562 -0.507812 5.101562 -1.078125 5.03125 -1.703125 C 4.925781 -2.566406 4.582031 -3.023438 4 -3.078125 C 3.863281 -3.078125 3.664062 -3.078125 3.40625 -3.078125 L 2.515625 -3.078125 L 2.515625 0 L 0.984375 0 L 0.984375 -7.65625 L 3.78125 -7.65625 C 4.207031 -7.65625 4.578125 -7.632812 4.890625 -7.59375 C 5.492188 -7.519531 5.976562 -7.316406 6.34375 -6.984375 C 6.71875 -6.660156 6.90625 -6.1875 6.90625 -5.5625 C 6.90625 -5.082031 6.769531 -4.6875 6.5 -4.375 C 6.238281 -4.0625 5.875 -3.835938 5.40625 -3.703125 C 6.0625 -3.453125 6.4375 -2.863281 6.53125 -1.9375 Z M 2.515625 -4.234375 L 3.578125 -4.234375 C 3.878906 -4.234375 4.082031 -4.234375 4.1875 -4.234375 C 4.925781 -4.304688 5.296875 -4.675781 5.296875 -5.34375 C 5.296875 -5.6875 5.207031 -5.941406 5.03125 -6.109375 C 4.851562 -6.273438 4.601562 -6.378906 4.28125 -6.421875 C 4.101562 -6.441406 3.890625 -6.453125 3.640625 -6.453125 L 2.515625 -6.453125 Z M 2.515625 -4.234375 "/></g></g></g><g fill="#07090d" fill-opacity="1"><g transform="translate(178.678994, 319.417805)"><g><path d="M 6.515625 -1.203125 L 6.515625 0 L 0.984375 0 L 0.984375 -7.65625 L 6.40625 -7.65625 L 6.40625 -6.453125 L 2.515625 -6.453125 L 2.515625 -4.4375 L 6.125 -4.4375 L 6.125 -3.234375 L 2.515625 -3.234375 L 2.515625 -1.203125 Z M 6.515625 -1.203125 "/></g></g></g><g fill="#07090d" fill-opacity="1"><g transform="translate(186.842596, 319.417805)"><g><path d="M 4.609375 -7.609375 C 5.554688 -7.492188 6.316406 -7.128906 6.890625 -6.515625 C 7.460938 -5.910156 7.75 -5.046875 7.75 -3.921875 C 7.75 -2.796875 7.453125 -1.894531 6.859375 -1.21875 C 6.273438 -0.539062 5.515625 -0.148438 4.578125 -0.046875 C 4.316406 -0.015625 3.992188 0 3.609375 0 L 0.984375 0 L 0.984375 -7.65625 L 3.625 -7.65625 C 4.019531 -7.65625 4.347656 -7.640625 4.609375 -7.609375 Z M 4.234375 -1.25 C 4.816406 -1.320312 5.28125 -1.585938 5.625 -2.046875 C 5.96875 -2.515625 6.140625 -3.132812 6.140625 -3.90625 C 6.140625 -4.644531 5.972656 -5.226562 5.640625 -5.65625 C 5.304688 -6.082031 4.847656 -6.332031 4.265625 -6.40625 C 4.035156 -6.4375 3.765625 -6.453125 3.453125 -6.453125 L 2.515625 -6.453125 L 2.515625 -1.203125 L 3.421875 -1.203125 C 3.804688 -1.203125 4.078125 -1.21875 4.234375 -1.25 Z M 4.234375 -1.25 "/></g></g></g><g fill="#07090d" fill-opacity="1"><g transform="translate(196.281681, 319.417805)"><g/></g></g><g fill="#07090d" fill-opacity="1"><g transform="translate(199.764822, 319.417805)"><g><path d="M 4.5 -3.90625 L 7.578125 -3.90625 L 7.578125 0 L 6.34375 0 L 6.25 -1.25 L 5.90625 -0.46875 C 5.476562 -0.0507812 4.851562 0.15625 4.03125 0.15625 C 2.96875 0.15625 2.125 -0.195312 1.5 -0.90625 C 0.875 -1.613281 0.5625 -2.570312 0.5625 -3.78125 C 0.5625 -5.007812 0.914062 -5.988281 1.625 -6.71875 C 2.34375 -7.445312 3.25 -7.8125 4.34375 -7.8125 C 5.332031 -7.8125 6.109375 -7.566406 6.671875 -7.078125 C 7.234375 -6.597656 7.554688 -5.960938 7.640625 -5.171875 L 7.65625 -5.0625 L 6.125 -5.0625 L 6.109375 -5.171875 C 5.898438 -6.171875 5.300781 -6.671875 4.3125 -6.671875 C 3.6875 -6.671875 3.175781 -6.414062 2.78125 -5.90625 C 2.382812 -5.40625 2.1875 -4.726562 2.1875 -3.875 C 2.1875 -2.945312 2.378906 -2.234375 2.765625 -1.734375 C 3.148438 -1.234375 3.648438 -0.984375 4.265625 -0.984375 C 4.765625 -0.984375 5.175781 -1.132812 5.5 -1.4375 C 5.832031 -1.738281 6.035156 -2.160156 6.109375 -2.703125 L 4.5 -2.703125 Z M 4.5 -3.90625 "/></g></g></g><g fill="#07090d" fill-opacity="1"><g transform="translate(209.270443, 319.417805)"><g><path d="M 7.203125 -7.65625 L 7.203125 -3.125 C 7.203125 -2.757812 7.191406 -2.457031 7.171875 -2.21875 C 7.117188 -1.519531 6.835938 -0.945312 6.328125 -0.5 C 5.816406 -0.0625 5.054688 0.15625 4.046875 0.15625 C 3.035156 0.15625 2.269531 -0.0625 1.75 -0.5 C 1.238281 -0.945312 0.957031 -1.519531 0.90625 -2.21875 C 0.894531 -2.457031 0.890625 -2.757812 0.890625 -3.125 L 0.890625 -7.65625 L 2.40625 -7.65625 L 2.40625 -2.96875 C 2.40625 -2.707031 2.410156 -2.519531 2.421875 -2.40625 C 2.460938 -1.957031 2.617188 -1.609375 2.890625 -1.359375 C 3.160156 -1.109375 3.546875 -0.984375 4.046875 -0.984375 C 4.546875 -0.984375 4.929688 -1.109375 5.203125 -1.359375 C 5.472656 -1.609375 5.625 -1.957031 5.65625 -2.40625 C 5.675781 -2.519531 5.6875 -2.707031 5.6875 -2.96875 L 5.6875 -7.65625 Z M 7.203125 -7.65625 "/></g></g></g><g fill="#07090d" fill-opacity="1"><g transform="translate(218.387879, 319.417805)"><g><path d="M 2.515625 0 L 0.984375 0 L 0.984375 -7.65625 L 2.515625 -7.65625 Z M 2.515625 0 "/></g></g></g><g fill="#07090d" fill-opacity="1"><g transform="translate(222.957959, 319.417805)"><g><path d="M 4.609375 -7.609375 C 5.554688 -7.492188 6.316406 -7.128906 6.890625 -6.515625 C 7.460938 -5.910156 7.75 -5.046875 7.75 -3.921875 C 7.75 -2.796875 7.453125 -1.894531 6.859375 -1.21875 C 6.273438 -0.539062 5.515625 -0.148438 4.578125 -0.046875 C 4.316406 -0.015625 3.992188 0 3.609375 0 L 0.984375 0 L 0.984375 -7.65625 L 3.625 -7.65625 C 4.019531 -7.65625 4.347656 -7.640625 4.609375 -7.609375 Z M 4.234375 -1.25 C 4.816406 -1.320312 5.28125 -1.585938 5.625 -2.046875 C 5.96875 -2.515625 6.140625 -3.132812 6.140625 -3.90625 C 6.140625 -4.644531 5.972656 -5.226562 5.640625 -5.65625 C 5.304688 -6.082031 4.847656 -6.332031 4.265625 -6.40625 C 4.035156 -6.4375 3.765625 -6.453125 3.453125 -6.453125 L 2.515625 -6.453125 L 2.515625 -1.203125 L 3.421875 -1.203125 C 3.804688 -1.203125 4.078125 -1.21875 4.234375 -1.25 Z M 4.234375 -1.25 "/></g></g></g><g fill="#07090d" fill-opacity="1"><g transform="translate(232.39705, 319.417805)"><g><path d="M 6.515625 -1.203125 L 6.515625 0 L 0.984375 0 L 0.984375 -7.65625 L 6.40625 -7.65625 L 6.40625 -6.453125 L 2.515625 -6.453125 L 2.515625 -4.4375 L 6.125 -4.4375 L 6.125 -3.234375 L 2.515625 -3.234375 L 2.515625 -1.203125 Z M 6.515625 -1.203125 "/></g></g></g><g fill="#07090d" fill-opacity="1"><g transform="translate(240.560659, 319.417805)"><g/></g></g><g fill="#07090d" fill-opacity="1"><g transform="translate(244.043806, 319.417805)"><g><path d="M 5.140625 -2.3125 L 2.5625 -2.3125 L 1.796875 0 L 0.171875 0 L 2.921875 -7.65625 L 4.84375 -7.65625 L 7.5625 0 L 5.890625 0 Z M 3.859375 -6.34375 L 2.953125 -3.515625 L 4.75 -3.515625 Z M 3.859375 -6.34375 "/></g></g></g><g fill="#07090d" fill-opacity="1"><g transform="translate(252.872882, 319.417805)"><g><path d="M 4.75 -7.59375 C 5.363281 -7.53125 5.859375 -7.296875 6.234375 -6.890625 C 6.617188 -6.492188 6.8125 -5.953125 6.8125 -5.265625 C 6.8125 -4.597656 6.613281 -4.0625 6.21875 -3.65625 C 5.832031 -3.25 5.34375 -3.007812 4.75 -2.9375 C 4.425781 -2.90625 4.054688 -2.890625 3.640625 -2.890625 L 2.515625 -2.890625 L 2.515625 0 L 0.984375 0 L 0.984375 -7.65625 L 3.640625 -7.65625 C 4.066406 -7.65625 4.4375 -7.632812 4.75 -7.59375 Z M 4.296875 -4.125 C 4.898438 -4.21875 5.203125 -4.597656 5.203125 -5.265625 C 5.203125 -5.941406 4.898438 -6.320312 4.296875 -6.40625 C 4.117188 -6.4375 3.890625 -6.453125 3.609375 -6.453125 L 2.515625 -6.453125 L 2.515625 -4.09375 L 3.609375 -4.09375 C 3.890625 -4.09375 4.117188 -4.101562 4.296875 -4.125 Z M 4.296875 -4.125 "/></g></g></g><g fill="#07090d" fill-opacity="1"><g transform="translate(261.114125, 319.417805)"><g><path d="M 4.75 -7.59375 C 5.363281 -7.53125 5.859375 -7.296875 6.234375 -6.890625 C 6.617188 -6.492188 6.8125 -5.953125 6.8125 -5.265625 C 6.8125 -4.597656 6.613281 -4.0625 6.21875 -3.65625 C 5.832031 -3.25 5.34375 -3.007812 4.75 -2.9375 C 4.425781 -2.90625 4.054688 -2.890625 3.640625 -2.890625 L 2.515625 -2.890625 L 2.515625 0 L 0.984375 0 L 0.984375 -7.65625 L 3.640625 -7.65625 C 4.066406 -7.65625 4.4375 -7.632812 4.75 -7.59375 Z M 4.296875 -4.125 C 4.898438 -4.21875 5.203125 -4.597656 5.203125 -5.265625 C 5.203125 -5.941406 4.898438 -6.320312 4.296875 -6.40625 C 4.117188 -6.4375 3.890625 -6.453125 3.609375 -6.453125 L 2.515625 -6.453125 L 2.515625 -4.09375 L 3.609375 -4.09375 C 3.890625 -4.09375 4.117188 -4.101562 4.296875 -4.125 Z M 4.296875 -4.125 "/></g></g></g></svg>